<?xml version="1.0" encoding="UTF-8"?> <svg xmlns="http://www.w3.org/2000/svg" width="20" height="18" viewBox="0 0 20 18" fill="none"><path fill-rule="evenodd" clip-rule="evenodd" d="M10.3697 0.0101117C10.1815 0.0406035 10.0445 0.167298 10.0102 0.34253L10 0.394638L10.0001 2.89178L10.0002 5.38893L10.0107 5.45268C10.037 5.61083 10.1256 5.71808 10.2678 5.76374L10.3188 5.78013L10.9666 5.78559L11.6143 5.79104L11.6608 5.81752C11.7351 5.85981 11.7769 5.92539 11.8774 6.15699C11.9038 6.21801 11.9686 6.35262 12.0214 6.45612C12.0741 6.55962 12.1438 6.70388 12.1761 6.7767C12.2084 6.84952 12.2983 7.03489 12.3758 7.18862C12.4533 7.34236 12.5299 7.49808 12.5461 7.53467C12.5623 7.57127 12.5975 7.62948 12.6242 7.66404L12.6727 7.72688L12.7341 7.76656C12.7678 7.78839 12.8143 7.8112 12.8374 7.81727L12.8795 7.82829L12.9521 7.82382L13.0247 7.81935L13.0804 7.79294L13.1361 7.76652L13.1924 7.7076L13.2487 7.64869L13.4045 7.34755C13.4902 7.18192 13.5901 6.98021 13.6264 6.8993C13.6628 6.81839 13.7411 6.65519 13.8006 6.53664C13.8601 6.41809 13.9291 6.27472 13.9541 6.21803C13.9791 6.16136 14.0265 6.06384 14.0593 6.00134L14.1191 5.8877L14.1565 5.85149L14.1939 5.81526L14.2445 5.8007L14.2951 5.78614L16.8059 5.78606L19.3166 5.78599L19.381 5.77587C19.5038 5.75657 19.6132 5.67738 19.665 5.57039L19.6911 5.51643V2.9027V0.288981L19.662 0.22784L19.6328 0.16669L19.5849 0.123232C19.5245 0.0684864 19.4496 0.0314627 19.3635 0.0137797L19.2964 0L14.8582 0.000980819L10.42 0.00196134L10.3697 0.0101117ZM17.5273 1.83504C17.5675 1.84927 17.624 1.8777 17.6528 1.89822L17.7053 1.93553L17.7433 1.9925C17.7642 2.02383 17.7868 2.07204 17.7937 2.09963L17.8061 2.14979L17.801 2.21132L17.7959 2.27284L17.7709 2.32542C17.7228 2.42658 17.6251 2.49785 17.5052 2.51934L17.4456 2.53002H14.8527H12.2598L12.2056 2.52006C12.1293 2.50603 12.0717 2.47648 12.0132 2.42122L11.9626 2.37349L11.9359 2.31708L11.9093 2.26069L11.9093 2.18695C11.9094 1.99281 12.0343 1.85689 12.252 1.81421C12.2743 1.80984 13.4539 1.80692 14.8734 1.80772L17.4543 1.80916L17.5273 1.83504ZM17.5243 3.28364C17.8621 3.39446 17.9063 3.79879 17.596 3.93933L17.5353 3.96683L14.8842 3.96939L12.2331 3.97195L12.1736 3.95718C12.0701 3.93149 11.9793 3.85388 11.9315 3.75028L11.9093 3.70202L11.9092 3.62356L11.9092 3.5451L11.9377 3.48396L11.9662 3.42281L12.0141 3.37935C12.073 3.32594 12.1493 3.28754 12.2308 3.27028L12.2925 3.25721L14.8734 3.25895L17.4543 3.26068L17.5243 3.28364Z" fill="white"></path><path fill-rule="evenodd" clip-rule="evenodd" d="M3.50431 0.690231C3.15339 0.75455 2.81782 0.900477 2.43651 1.15456C1.66642 1.66773 1.19292 2.4495 1.04505 3.45198C1.03669 3.50862 1.02314 3.59027 1.01493 3.63342L1 3.71188V4.19736V4.68283L1.01502 4.76129C1.02329 4.80445 1.03473 4.87727 1.04045 4.92312C1.07978 5.23835 1.14598 5.57482 1.23632 5.91859L1.31364 6.21282L1.4389 6.5757C1.57439 6.96828 1.5938 7.01809 1.75548 7.3887L1.8629 7.63492L2.11255 8.11549C2.35061 8.57374 2.55028 8.92905 2.67504 9.11646C2.70658 9.16384 2.7587 9.2453 2.79087 9.29748C2.86973 9.42545 3.28068 10.0211 3.38278 10.1555C3.42788 10.2148 3.50555 10.3179 3.55539 10.3845C3.60523 10.4512 3.67958 10.5461 3.7206 10.5954C3.76163 10.6447 3.84672 10.7513 3.9097 10.8322C3.97267 10.9131 4.05007 11.008 4.08169 11.0431C4.11331 11.0781 4.17588 11.1509 4.22073 11.2049C4.26558 11.2588 4.33696 11.3405 4.37935 11.3863C4.42173 11.4322 4.47899 11.4962 4.50658 11.5285C4.53417 11.5609 4.61377 11.647 4.68346 11.7198C4.75316 11.7926 4.84396 11.8919 4.88525 11.9405C4.92654 11.989 5.17244 12.2344 5.43169 12.4858L5.90305 12.9428L6.00427 13.0212C6.05993 13.0644 6.16924 13.1589 6.24718 13.2312C6.32511 13.3035 6.40937 13.378 6.43442 13.3966C6.45947 13.4152 6.52779 13.4704 6.58624 13.5193C6.64469 13.5681 6.71529 13.6254 6.74312 13.6466C6.77096 13.6678 6.837 13.721 6.88988 13.7649C6.94276 13.8087 7.06263 13.9016 7.15624 13.9714C7.24985 14.0411 7.37511 14.1347 7.43458 14.1793C7.49405 14.224 7.58825 14.292 7.64392 14.3304C7.69958 14.3688 7.79295 14.4344 7.8514 14.4761C7.90985 14.5178 8.0556 14.6146 8.17528 14.6912C8.29497 14.7678 8.40428 14.8382 8.41819 14.8476C8.67037 15.0179 9.15978 15.3041 9.45364 15.4531C9.56607 15.5101 9.7036 15.5824 9.75926 15.6138C9.81493 15.6453 9.89919 15.6885 9.94651 15.7099C9.99383 15.7314 10.1464 15.8007 10.2856 15.8641C10.6002 16.0073 10.8296 16.1005 11.3028 16.2774C11.4114 16.318 11.7419 16.4253 11.8105 16.4423C11.8458 16.4511 11.9247 16.473 11.9859 16.4911C12.2321 16.5638 12.8369 16.6908 13.0386 16.7121C13.0942 16.718 13.1694 16.7297 13.2056 16.738L13.2714 16.7533L13.4738 16.7613C13.5851 16.7657 13.7172 16.7762 13.7673 16.7847L13.8584 16.8L13.99 16.7999L14.1215 16.7999L14.2481 16.7805L14.3746 16.7611L14.5011 16.761L14.6276 16.7609L14.7744 16.7357C15.0623 16.6864 15.126 16.6727 15.3169 16.6193C16.1381 16.3895 16.668 16.0212 17.1705 15.3308L17.254 15.2162L17.3698 14.9938L17.4856 14.7714L17.5371 14.617L17.5887 14.4627L17.6188 14.2859C17.6607 14.0391 17.6586 13.9936 17.592 13.7009C17.5378 13.4631 17.4458 13.2561 17.299 13.0423L17.234 12.9476L17.0846 12.802L16.9353 12.6564L16.7435 12.524C16.638 12.4512 16.4753 12.3408 16.382 12.2788C16.2887 12.2168 16.1564 12.1275 16.088 12.0804C15.8685 11.9293 15.6941 11.8113 15.5385 11.7085C15.455 11.6534 15.3161 11.5593 15.2298 11.4994C15.1435 11.4396 15.0069 11.3468 14.9262 11.2933C14.8455 11.2399 14.7384 11.1668 14.6883 11.131C14.3094 10.8602 14.0083 10.7132 13.7338 10.6652C13.6854 10.6567 13.6117 10.6424 13.5699 10.6334L13.494 10.6169L13.3574 10.617L13.2207 10.6171L13.0633 10.6479C12.7139 10.7164 12.5359 10.785 12.2795 10.9499L12.1884 11.0085L12.0313 11.1606L11.8742 11.3128L11.7941 11.4256C11.7501 11.4876 11.6729 11.5935 11.6227 11.6609C11.5725 11.7284 11.4935 11.8375 11.4471 11.9036C11.35 12.0417 11.3046 12.0882 11.2518 12.1035L11.2143 12.1144L11.1771 12.1026C11.1333 12.0885 10.9694 11.9853 10.8459 11.8939C10.7978 11.8583 10.709 11.7951 10.6486 11.7534C10.5275 11.6699 10.3534 11.539 10.1287 11.3626C10.048 11.2992 9.93867 11.2139 9.88578 11.1729C9.8329 11.1319 9.75319 11.0669 9.70866 11.0284C9.66413 10.99 9.58897 10.9281 9.54166 10.891C9.49434 10.8539 9.40097 10.773 9.33417 10.7112C9.26737 10.6494 9.16717 10.5632 9.1115 10.5196C8.92768 10.3757 7.60395 9.09507 7.4628 8.92462C7.42483 8.87877 7.3371 8.78225 7.26783 8.71014C7.14377 8.581 7.04367 8.4683 6.84433 8.23336C6.78867 8.16775 6.71749 8.08571 6.68617 8.05103C6.5777 7.93098 6.22333 7.48419 6.02166 7.21319C5.75135 6.84999 5.75164 6.84747 6.09053 6.62046C6.18225 6.55902 6.35067 6.4446 6.46479 6.36622L6.67227 6.22369L6.80399 6.09566L6.93571 5.96763L7.02893 5.83396C7.17315 5.62714 7.23223 5.49521 7.30724 5.21244L7.33846 5.09475L7.34278 4.84848L7.34709 4.60222L7.33053 4.51658C7.32142 4.46948 7.2981 4.37728 7.2787 4.3117L7.24342 4.19245L7.16893 4.04534L7.09445 3.89823L6.93858 3.67265C6.85287 3.54859 6.74833 3.40074 6.7063 3.3441C6.57164 3.16266 6.31283 2.80493 6.19015 2.63068C6.12467 2.53768 6.0443 2.42734 6.01154 2.38549C5.97878 2.34363 5.91405 2.25423 5.86768 2.1868C5.82131 2.11937 5.75297 2.02434 5.71581 1.9756C5.67865 1.92687 5.60579 1.82536 5.55392 1.75003C5.10553 1.09892 4.7754 0.847339 4.1875 0.708699L4.08122 0.68364L3.82819 0.680443L3.57516 0.677246L3.50431 0.690231Z" stroke="white" stroke-width="1.07163"></path></svg> 