<?xml version="1.0" encoding="UTF-8"?> <svg xmlns="http://www.w3.org/2000/svg" id="レイヤー_1" data-name="レイヤー 1" width="0.3in" height="0.33in" viewBox="0 0 21.5 24"><defs><style>.cls-1{fill:none;stroke:#fff;}</style></defs><path id="パス_9" data-name="パス 9" class="cls-1" d="M6.08,4.39a6.52,6.52,0,0,1,9.22-.12l.12.12a7.35,7.35,0,0,1,1.92,4.66A7.61,7.61,0,0,1,16,14h0l-5.27,7.73L5.48,14h0A7.61,7.61,0,0,1,4.16,9.05,7.35,7.35,0,0,1,6.08,4.39M7.76,9.08A3.06,3.06,0,1,0,10.82,6a3.05,3.05,0,0,0-3.06,3.1Z"></path></svg> 